<mxfile host="65bd71144e">
    <diagram id="lLyx0XdtuGJB43OEZlzJ" name="Page-1">
        <mxGraphModel dx="3419" dy="985" grid="0" gridSize="10" guides="1" tooltips="1" connect="1" arrows="1" fold="1" page="0" pageScale="1" pageWidth="1200" pageHeight="1920" background="#ffffff" math="0" shadow="0">
            <root>
                <mxCell id="0"/>
                <mxCell id="1" parent="0"/>
                <mxCell id="188" value="" style="edgeStyle=none;exitX=0.5;exitY=0;exitDx=0;exitDy=0;fontSize=13;fontColor=#000000;labelBackgroundColor=none;labelBorderColor=none;html=1;strokeColor=#000000;endArrow=none;endFill=0;fontStyle=1;strokeWidth=2;spacingTop=0;spacing=2;" parent="1" source="63" target="187" edge="1">
                    <mxGeometry relative="1" as="geometry"/>
                </mxCell>
                <mxCell id="189" value="" style="edgeStyle=none;exitX=0.25;exitY=0;exitDx=0;exitDy=0;fontSize=13;fontColor=#000000;labelBackgroundColor=none;labelBorderColor=none;html=1;strokeColor=#000000;endArrow=none;endFill=0;fontStyle=1;strokeWidth=2;spacingTop=0;spacing=2;" parent="1" source="63" target="186" edge="1">
                    <mxGeometry relative="1" as="geometry"/>
                </mxCell>
                <mxCell id="190" value="" style="edgeStyle=none;exitX=0;exitY=0;exitDx=0;exitDy=0;entryX=1;entryY=1;entryDx=0;entryDy=0;fontSize=13;fontColor=#000000;labelBackgroundColor=none;labelBorderColor=none;html=1;strokeColor=#000000;endArrow=none;endFill=0;fontStyle=1;strokeWidth=2;spacingTop=0;spacing=2;" parent="1" source="63" target="185" edge="1">
                    <mxGeometry relative="1" as="geometry"/>
                </mxCell>
                <mxCell id="191" value="" style="edgeStyle=none;exitX=0;exitY=0.25;exitDx=0;exitDy=0;entryX=1;entryY=0.5;entryDx=0;entryDy=0;fontSize=13;fontColor=#000000;labelBackgroundColor=none;labelBorderColor=none;html=1;strokeColor=#000000;endArrow=none;endFill=0;fontStyle=1;strokeWidth=2;spacingTop=0;spacing=2;" parent="1" source="63" target="184" edge="1">
                    <mxGeometry relative="1" as="geometry"/>
                </mxCell>
                <mxCell id="192" value="" style="edgeStyle=none;exitX=0;exitY=0.5;exitDx=0;exitDy=0;fontSize=13;fontColor=#000000;labelBackgroundColor=none;labelBorderColor=none;html=1;strokeColor=#000000;endArrow=none;endFill=0;fontStyle=1;strokeWidth=2;spacingTop=0;spacing=2;" parent="1" source="63" target="183" edge="1">
                    <mxGeometry relative="1" as="geometry"/>
                </mxCell>
                <mxCell id="193" value="" style="edgeStyle=none;exitX=0;exitY=0.5;exitDx=0;exitDy=0;entryX=1;entryY=1;entryDx=0;entryDy=0;fontSize=13;fontColor=#000000;labelBackgroundColor=none;labelBorderColor=none;html=1;strokeColor=#000000;endArrow=none;endFill=0;fontStyle=1;strokeWidth=2;spacingTop=0;spacing=2;" parent="1" source="63" target="182" edge="1">
                    <mxGeometry relative="1" as="geometry"/>
                </mxCell>
                <mxCell id="195" value="" style="edgeStyle=none;exitX=0;exitY=1;exitDx=0;exitDy=0;fontSize=13;fontColor=#000000;labelBackgroundColor=none;labelBorderColor=none;html=1;strokeColor=#000000;endArrow=none;endFill=0;fontStyle=1;strokeWidth=2;spacingTop=0;spacing=2;" parent="1" source="63" edge="1">
                    <mxGeometry relative="1" as="geometry">
                        <mxPoint x="-552.0263572499491" y="725.1345397777325" as="targetPoint"/>
                    </mxGeometry>
                </mxCell>
                <mxCell id="197" value="" style="edgeStyle=none;exitX=0;exitY=0.75;exitDx=0;exitDy=0;fontSize=13;fontColor=#000000;labelBackgroundColor=none;labelBorderColor=none;html=1;strokeColor=#000000;endArrow=none;endFill=0;fontStyle=1;strokeWidth=2;spacingTop=0;spacing=2;" parent="1" source="63" target="196" edge="1">
                    <mxGeometry relative="1" as="geometry"/>
                </mxCell>
                <mxCell id="63" value="Real&lt;br style=&quot;font-size: 13px;&quot;&gt;estate companies" style="rounded=0;fontSize=13;fontColor=#000000;labelBackgroundColor=none;labelBorderColor=none;html=1;strokeColor=#000000;fillColor=#FFFFFF;fontStyle=1;whiteSpace=wrap;strokeWidth=2;spacingTop=0;spacing=2;" parent="1" vertex="1">
                    <mxGeometry x="-490" y="647" width="120" height="60" as="geometry"/>
                </mxCell>
                <mxCell id="65" value="GovernmentArea" style="rounded=0;fontSize=13;fontColor=#000000;labelBackgroundColor=none;labelBorderColor=none;html=1;strokeColor=#000000;fillColor=none;fontStyle=1;whiteSpace=wrap;strokeWidth=2;spacingTop=0;spacing=2;" parent="1" vertex="1">
                    <mxGeometry x="-300" y="950" width="120" height="60" as="geometry"/>
                </mxCell>
                <mxCell id="130" value="" style="edgeStyle=none;exitX=0.75;exitY=1;exitDx=0;exitDy=0;entryX=0.5;entryY=0;entryDx=0;entryDy=0;fontSize=13;fontColor=#000000;labelBackgroundColor=none;labelBorderColor=none;html=1;strokeColor=#000000;endArrow=none;endFill=0;fontStyle=1;strokeWidth=2;spacingTop=0;spacing=2;" parent="1" source="66" target="131" edge="1">
                    <mxGeometry relative="1" as="geometry">
                        <mxPoint x="530" y="1160" as="targetPoint"/>
                    </mxGeometry>
                </mxCell>
                <mxCell id="145" value="" style="edgeStyle=none;exitX=0;exitY=1;exitDx=0;exitDy=0;fontSize=13;fontColor=#000000;labelBackgroundColor=none;labelBorderColor=none;html=1;strokeColor=#000000;endArrow=none;endFill=0;fontStyle=1;strokeWidth=2;spacingTop=0;spacing=2;" parent="1" source="66" edge="1">
                    <mxGeometry relative="1" as="geometry">
                        <mxPoint x="138" y="1059" as="targetPoint"/>
                    </mxGeometry>
                </mxCell>
                <mxCell id="66" value="PropertyUnit" style="rounded=0;fontSize=13;fontColor=#000000;labelBackgroundColor=none;labelBorderColor=none;html=1;strokeColor=#000000;fillColor=#FFFFFF;fontStyle=1;whiteSpace=wrap;strokeWidth=2;spacingTop=0;spacing=2;" parent="1" vertex="1">
                    <mxGeometry x="264" y="888" width="120" height="60" as="geometry"/>
                </mxCell>
                <mxCell id="68" value="Customer" style="rounded=0;fontSize=13;fontColor=#000000;labelBackgroundColor=none;labelBorderColor=none;html=1;strokeColor=#000000;fillColor=none;fontStyle=1;whiteSpace=wrap;strokeWidth=2;spacingTop=0;spacing=2;" parent="1" vertex="1">
                    <mxGeometry x="545" y="643" width="120" height="50" as="geometry"/>
                </mxCell>
                <mxCell id="86" value="" style="edgeStyle=none;exitX=0.5;exitY=1;exitDx=0;exitDy=0;fontSize=13;fontColor=#000000;labelBackgroundColor=none;labelBorderColor=none;html=1;strokeColor=#000000;endArrow=none;endFill=0;fontStyle=1;strokeWidth=2;spacingTop=0;spacing=2;entryX=0.869;entryY=0.011;entryDx=0;entryDy=0;entryPerimeter=0;" parent="1" source="69" edge="1" target="68">
                    <mxGeometry relative="1" as="geometry">
                        <mxPoint x="910" y="615" as="targetPoint"/>
                    </mxGeometry>
                </mxCell>
                <mxCell id="69" value="Email" style="ellipse;fontSize=13;fontColor=#000000;labelBackgroundColor=none;labelBorderColor=none;html=1;strokeColor=#000000;fillColor=none;fontStyle=1;whiteSpace=wrap;strokeWidth=2;spacingTop=0;spacing=2;" parent="1" vertex="1">
                    <mxGeometry x="725" y="554" width="110" height="50" as="geometry"/>
                </mxCell>
                <mxCell id="89" value="" style="edgeStyle=none;entryX=0.11;entryY=-0.015;entryDx=0;entryDy=0;fontSize=13;fontColor=#000000;labelBackgroundColor=none;labelBorderColor=none;html=1;strokeColor=#000000;endArrow=none;endFill=0;fontStyle=1;strokeWidth=2;spacingTop=0;spacing=2;entryPerimeter=0;" parent="1" source="71" target="68" edge="1">
                    <mxGeometry relative="1" as="geometry"/>
                </mxCell>
                <mxCell id="71" value="Password" style="ellipse;fontSize=13;fontColor=#000000;labelBackgroundColor=none;labelBorderColor=none;html=1;strokeColor=#000000;fillColor=none;fontStyle=1;whiteSpace=wrap;strokeWidth=2;spacingTop=0;spacing=2;" parent="1" vertex="1">
                    <mxGeometry x="503.5" y="394" width="110" height="50" as="geometry"/>
                </mxCell>
                <mxCell id="83" value="" style="edgeStyle=none;exitX=0.5;exitY=1;exitDx=0;exitDy=0;fontSize=13;fontColor=#000000;labelBackgroundColor=none;labelBorderColor=none;html=1;strokeColor=#000000;endArrow=none;endFill=0;fontStyle=1;strokeWidth=2;spacingTop=0;spacing=2;" parent="1" source="72" target="74" edge="1">
                    <mxGeometry relative="1" as="geometry"/>
                </mxCell>
                <mxCell id="72" value="LastName" style="ellipse;fontSize=13;fontColor=#000000;labelBackgroundColor=none;labelBorderColor=none;html=1;strokeColor=#000000;fillColor=none;fontStyle=1;whiteSpace=wrap;strokeWidth=2;spacingTop=0;spacing=2;" parent="1" vertex="1">
                    <mxGeometry x="768" y="416" width="110" height="50" as="geometry"/>
                </mxCell>
                <mxCell id="84" value="" style="edgeStyle=none;fontSize=13;fontColor=#000000;labelBackgroundColor=none;labelBorderColor=none;html=1;strokeColor=#000000;endArrow=none;endFill=0;fontStyle=1;strokeWidth=2;spacingTop=0;spacing=2;entryX=0.5;entryY=0;entryDx=0;entryDy=0;" parent="1" source="73" edge="1" target="74">
                    <mxGeometry relative="1" as="geometry">
                        <mxPoint x="850" y="420" as="targetPoint"/>
                    </mxGeometry>
                </mxCell>
                <mxCell id="73" value="FirstName" style="ellipse;fontSize=13;fontColor=#000000;labelBackgroundColor=none;labelBorderColor=none;html=1;strokeColor=#000000;fillColor=none;fontStyle=1;whiteSpace=wrap;strokeWidth=2;spacingTop=0;spacing=2;" parent="1" vertex="1">
                    <mxGeometry x="654.5" y="388" width="110" height="50" as="geometry"/>
                </mxCell>
                <mxCell id="85" value="" style="edgeStyle=none;exitX=0.5;exitY=1;exitDx=0;exitDy=0;entryX=0.5;entryY=0;entryDx=0;entryDy=0;fontSize=13;fontColor=#000000;labelBackgroundColor=none;labelBorderColor=none;html=1;strokeColor=#000000;endArrow=none;endFill=0;fontStyle=1;strokeWidth=2;spacingTop=0;spacing=2;" parent="1" source="74" target="68" edge="1">
                    <mxGeometry relative="1" as="geometry"/>
                </mxCell>
                <mxCell id="74" value="Name" style="ellipse;fontSize=13;fontColor=#000000;labelBackgroundColor=none;labelBorderColor=none;html=1;strokeColor=#000000;fillColor=none;fontStyle=1;whiteSpace=wrap;strokeWidth=2;spacingTop=0;spacing=2;" parent="1" vertex="1">
                    <mxGeometry x="661" y="494" width="110" height="50" as="geometry"/>
                </mxCell>
                <mxCell id="87" value="" style="edgeStyle=none;exitX=0.5;exitY=1;exitDx=0;exitDy=0;fontSize=13;fontColor=#000000;labelBackgroundColor=none;labelBorderColor=none;html=1;strokeColor=#000000;endArrow=none;endFill=0;fontStyle=1;strokeWidth=2;spacingTop=0;spacing=2;entryX=1;entryY=0.5;entryDx=0;entryDy=0;" parent="1" source="75" target="68" edge="1">
                    <mxGeometry relative="1" as="geometry"/>
                </mxCell>
                <mxCell id="75" value="customerId" style="ellipse;fontStyle=5;fontSize=13;fontColor=#000000;labelBackgroundColor=none;labelBorderColor=none;html=1;strokeColor=#000000;fillColor=none;whiteSpace=wrap;strokeWidth=2;spacingTop=0;spacing=2;" parent="1" vertex="1">
                    <mxGeometry x="735" y="628" width="110" height="50" as="geometry"/>
                </mxCell>
                <mxCell id="88" value="" style="edgeStyle=none;entryX=0.25;entryY=0;entryDx=0;entryDy=0;exitX=0.653;exitY=0.967;exitDx=0;exitDy=0;exitPerimeter=0;fontSize=13;fontColor=#000000;labelBackgroundColor=none;labelBorderColor=none;html=1;strokeColor=#000000;endArrow=none;endFill=0;fontStyle=1;strokeWidth=2;spacingTop=0;spacing=2;" parent="1" source="92" target="68" edge="1">
                    <mxGeometry relative="1" as="geometry">
                        <mxPoint x="717.8181262631126" y="439.378593808187" as="sourcePoint"/>
                    </mxGeometry>
                </mxCell>
                <mxCell id="91" value="" style="edgeStyle=none;exitX=1;exitY=1;exitDx=0;exitDy=0;fontSize=13;fontColor=#000000;labelBackgroundColor=none;labelBorderColor=none;html=1;strokeColor=#000000;endArrow=none;endFill=0;fontStyle=1;strokeWidth=2;spacingTop=0;spacing=2;entryX=0;entryY=0.75;entryDx=0;entryDy=0;" parent="1" source="80" edge="1" target="68">
                    <mxGeometry relative="1" as="geometry">
                        <mxPoint x="850" y="660" as="targetPoint"/>
                    </mxGeometry>
                </mxCell>
                <mxCell id="80" value="isVerified" style="ellipse;fontSize=13;fontColor=#000000;labelBackgroundColor=none;labelBorderColor=none;html=1;strokeColor=#000000;fillColor=none;fontStyle=1;whiteSpace=wrap;strokeWidth=2;spacingTop=0;spacing=2;" parent="1" vertex="1">
                    <mxGeometry x="389" y="564" width="110" height="50" as="geometry"/>
                </mxCell>
                <mxCell id="90" value="" style="edgeStyle=none;exitX=1;exitY=1;exitDx=0;exitDy=0;entryX=0;entryY=0.5;entryDx=0;entryDy=0;fontSize=13;fontColor=#000000;labelBackgroundColor=none;labelBorderColor=none;html=1;strokeColor=#000000;endArrow=none;endFill=0;fontStyle=1;strokeWidth=2;spacingTop=0;spacing=2;" parent="1" source="82" target="68" edge="1">
                    <mxGeometry relative="1" as="geometry"/>
                </mxCell>
                <mxCell id="82" value="registrationDate" style="ellipse;fontSize=13;fontColor=#000000;labelBackgroundColor=none;labelBorderColor=none;html=1;strokeColor=#000000;fillColor=none;fontStyle=1;whiteSpace=wrap;strokeWidth=2;spacingTop=0;spacing=2;" parent="1" vertex="1">
                    <mxGeometry x="430" y="479" width="110" height="50" as="geometry"/>
                </mxCell>
                <mxCell id="383" value="" style="edgeStyle=none;html=1;" edge="1" parent="1" source="92" target="82">
                    <mxGeometry relative="1" as="geometry"/>
                </mxCell>
                <mxCell id="92" value="Phone" style="ellipse;shape=doubleEllipse;fontSize=13;fontColor=#000000;labelBackgroundColor=none;labelBorderColor=none;html=1;strokeColor=#000000;fillColor=none;fontStyle=1;whiteSpace=wrap;strokeWidth=2;spacingTop=0;spacing=2;" parent="1" vertex="1">
                    <mxGeometry x="580" y="434" width="100" height="60" as="geometry"/>
                </mxCell>
                <mxCell id="97" value="" style="endArrow=none;entryX=0.5;entryY=1;entryDx=0;entryDy=0;fontSize=13;fontColor=#000000;labelBackgroundColor=none;labelBorderColor=none;html=1;strokeColor=#000000;fontStyle=1;strokeWidth=2;spacingTop=0;spacing=2;exitX=0.5;exitY=0;exitDx=0;exitDy=0;" parent="1" target="68" edge="1" source="98">
                    <mxGeometry width="50" height="50" relative="1" as="geometry">
                        <mxPoint x="900" y="740" as="sourcePoint"/>
                        <mxPoint x="910" y="710" as="targetPoint"/>
                    </mxGeometry>
                </mxCell>
                <mxCell id="98" value="Makes" style="rhombus;fontSize=13;fontColor=#000000;labelBackgroundColor=none;labelBorderColor=none;html=1;strokeColor=#000000;fillColor=#FFFFFF;fontStyle=1;whiteSpace=wrap;strokeWidth=2;spacingTop=0;spacing=2;" parent="1" vertex="1">
                    <mxGeometry x="590" y="750" width="80" height="80" as="geometry"/>
                </mxCell>
                <mxCell id="101" value="" style="edgeStyle=none;exitX=0.999;exitY=0.654;exitDx=0;exitDy=0;fontSize=13;fontColor=#000000;labelBackgroundColor=none;labelBorderColor=none;html=1;strokeColor=#000000;endArrow=none;endFill=0;fontStyle=1;entryX=0;entryY=0;entryDx=0;entryDy=0;strokeWidth=2;spacingTop=0;spacing=2;exitPerimeter=0;" parent="1" source="99" target="111" edge="1">
                    <mxGeometry relative="1" as="geometry">
                        <mxPoint x="1120" y="1100" as="targetPoint"/>
                    </mxGeometry>
                </mxCell>
                <mxCell id="104" value="" style="edgeStyle=none;exitX=0.25;exitY=1;exitDx=0;exitDy=0;fontSize=13;fontColor=#000000;labelBackgroundColor=none;labelBorderColor=none;html=1;strokeColor=#000000;endArrow=none;endFill=0;fontStyle=1;strokeWidth=2;spacingTop=0;spacing=2;" parent="1" source="99" edge="1">
                    <mxGeometry relative="1" as="geometry">
                        <mxPoint x="799.9999999999998" y="1170" as="targetPoint"/>
                    </mxGeometry>
                </mxCell>
                <mxCell id="105" value="" style="edgeStyle=none;exitX=0;exitY=1;exitDx=0;exitDy=0;entryX=0.5;entryY=0;entryDx=0;entryDy=0;fontSize=13;fontColor=#000000;labelBackgroundColor=none;labelBorderColor=none;html=1;strokeColor=#000000;endArrow=none;endFill=0;fontStyle=1;strokeWidth=2;spacingTop=0;spacing=2;" parent="1" source="99" target="118" edge="1">
                    <mxGeometry relative="1" as="geometry">
                        <mxPoint x="730" y="1190" as="targetPoint"/>
                    </mxGeometry>
                </mxCell>
                <mxCell id="106" value="" style="edgeStyle=none;exitX=0;exitY=0.75;exitDx=0;exitDy=0;fontSize=13;fontColor=#000000;labelBackgroundColor=none;labelBorderColor=none;html=1;strokeColor=#000000;endArrow=none;endFill=0;fontStyle=1;strokeWidth=2;spacingTop=0;spacing=2;" parent="1" source="99" edge="1">
                    <mxGeometry relative="1" as="geometry">
                        <mxPoint x="590.0000000000002" y="1260" as="targetPoint"/>
                    </mxGeometry>
                </mxCell>
                <mxCell id="107" value="" style="edgeStyle=none;exitX=1;exitY=0.5;exitDx=0;exitDy=0;fontSize=13;fontColor=#000000;labelBackgroundColor=none;labelBorderColor=none;html=1;strokeColor=#000000;endArrow=none;endFill=0;fontStyle=1;strokeWidth=2;spacingTop=0;spacing=2;" parent="1" source="99" target="108" edge="1">
                    <mxGeometry relative="1" as="geometry">
                        <mxPoint x="1149.9999999999998" y="1050" as="targetPoint"/>
                    </mxGeometry>
                </mxCell>
                <mxCell id="99" value="Booking" style="shape=ext;double=1;rounded=0;fontSize=13;fontColor=#000000;labelBackgroundColor=none;labelBorderColor=none;html=1;strokeColor=#000000;fillColor=#FFFFFF;fontStyle=1;whiteSpace=wrap;strokeWidth=2;spacingTop=0;spacing=2;" parent="1" vertex="1">
                    <mxGeometry x="608" y="895" width="120" height="80" as="geometry"/>
                </mxCell>
                <mxCell id="100" value="" style="endArrow=none;exitX=0.5;exitY=0;exitDx=0;exitDy=0;fontSize=13;fontColor=#000000;labelBackgroundColor=none;labelBorderColor=none;html=1;strokeColor=#000000;fontStyle=1;shape=link;strokeWidth=2;spacingTop=0;spacing=2;entryX=0.5;entryY=1;entryDx=0;entryDy=0;" parent="1" source="99" edge="1" target="98">
                    <mxGeometry width="50" height="50" relative="1" as="geometry">
                        <mxPoint x="860" y="760" as="sourcePoint"/>
                        <mxPoint x="905" y="810" as="targetPoint"/>
                    </mxGeometry>
                </mxCell>
                <mxCell id="108" value="bookingId" style="ellipse;fontSize=13;fontColor=#000000;labelBackgroundColor=none;labelBorderColor=none;html=1;strokeColor=#000000;fillColor=#FFFFFF;fontStyle=1;whiteSpace=wrap;strokeWidth=2;spacingTop=0;spacing=2;" parent="1" vertex="1">
                    <mxGeometry x="949" y="915" width="100" height="40" as="geometry"/>
                </mxCell>
                <mxCell id="111" value="customerId" style="ellipse;fontSize=13;fontColor=#000000;labelBackgroundColor=none;labelBorderColor=none;html=1;strokeColor=#000000;fillColor=#FFFFFF;fontStyle=1;whiteSpace=wrap;strokeWidth=2;spacingTop=0;spacing=2;" parent="1" vertex="1">
                    <mxGeometry x="971" y="975" width="100" height="40" as="geometry"/>
                </mxCell>
                <mxCell id="112" value="propertyUnitId" style="ellipse;fontSize=13;fontColor=#000000;labelBackgroundColor=none;labelBorderColor=none;html=1;strokeColor=#000000;fillColor=#FFFFFF;fontStyle=1;whiteSpace=wrap;strokeWidth=2;spacingTop=0;spacing=2;" parent="1" vertex="1">
                    <mxGeometry x="922" y="1085" width="100" height="40" as="geometry"/>
                </mxCell>
                <mxCell id="115" value="bookingDate" style="ellipse;fontSize=13;fontColor=#000000;labelBackgroundColor=none;labelBorderColor=none;html=1;strokeColor=#000000;fillColor=none;fontStyle=1;whiteSpace=wrap;strokeWidth=2;spacingTop=0;spacing=2;" parent="1" vertex="1">
                    <mxGeometry x="860" y="1160" width="100" height="40" as="geometry"/>
                </mxCell>
                <mxCell id="116" value="status" style="ellipse;fontSize=13;fontColor=#000000;labelBackgroundColor=none;labelBorderColor=none;html=1;strokeColor=#000000;fillColor=#FFFFFF;fontStyle=1;whiteSpace=wrap;strokeWidth=2;spacingTop=0;spacing=2;" parent="1" vertex="1">
                    <mxGeometry x="740" y="1170" width="100" height="40" as="geometry"/>
                </mxCell>
                <mxCell id="118" value="appointmentDate" style="ellipse;fontSize=13;fontColor=#000000;labelBackgroundColor=none;labelBorderColor=none;html=1;strokeColor=#000000;fillColor=#FFFFFF;fontStyle=1;whiteSpace=wrap;strokeWidth=2;spacingTop=0;spacing=2;" parent="1" vertex="1">
                    <mxGeometry x="665" y="1210" width="125" height="50" as="geometry"/>
                </mxCell>
                <mxCell id="121" value="isConfirmed" style="ellipse;fontSize=13;fontColor=#000000;labelBackgroundColor=none;labelBorderColor=none;html=1;strokeColor=#000000;fillColor=#FFFFFF;fontStyle=1;whiteSpace=wrap;strokeWidth=2;spacingTop=0;spacing=2;" parent="1" vertex="1">
                    <mxGeometry x="550" y="1260" width="100" height="40" as="geometry"/>
                </mxCell>
                <mxCell id="131" value="propertyUnitId" style="ellipse;fontSize=13;fontColor=#000000;labelBackgroundColor=none;labelBorderColor=none;html=1;strokeColor=#000000;fillColor=#FFFFFF;fontStyle=1;whiteSpace=wrap;strokeWidth=2;spacingTop=0;spacing=2;" parent="1" vertex="1">
                    <mxGeometry x="467" y="1120" width="100" height="40" as="geometry"/>
                </mxCell>
                <mxCell id="132" value="" style="edgeStyle=none;entryX=0.742;entryY=0.105;entryDx=0;entryDy=0;entryPerimeter=0;exitX=0.603;exitY=1.026;exitDx=0;exitDy=0;exitPerimeter=0;fontSize=13;fontColor=#000000;labelBackgroundColor=none;labelBorderColor=none;html=1;strokeColor=#000000;endArrow=none;endFill=0;fontStyle=1;strokeWidth=2;spacingTop=0;spacing=2;" parent="1" source="66" target="133" edge="1">
                    <mxGeometry relative="1" as="geometry">
                        <mxPoint x="470" y="1160" as="targetPoint"/>
                        <mxPoint x="540" y="990" as="sourcePoint"/>
                    </mxGeometry>
                </mxCell>
                <mxCell id="133" value="governmentAreaId" style="ellipse;fontSize=13;fontColor=#000000;labelBackgroundColor=none;labelBorderColor=none;html=1;strokeColor=#000000;fillColor=none;fontStyle=1;whiteSpace=wrap;strokeWidth=2;spacingTop=0;spacing=2;" parent="1" vertex="1">
                    <mxGeometry x="310" y="1270" width="124" height="54" as="geometry"/>
                </mxCell>
                <mxCell id="134" value="" style="edgeStyle=none;entryX=1;entryY=0;entryDx=0;entryDy=0;fontSize=13;fontColor=#000000;labelBackgroundColor=none;labelBorderColor=none;html=1;strokeColor=#000000;endArrow=none;endFill=0;fontStyle=1;strokeWidth=2;spacingTop=0;spacing=2;" parent="1" source="66" target="135" edge="1">
                    <mxGeometry relative="1" as="geometry">
                        <mxPoint x="360" y="1110" as="targetPoint"/>
                        <mxPoint x="510" y="990" as="sourcePoint"/>
                    </mxGeometry>
                </mxCell>
                <mxCell id="135" value="bedrooms" style="ellipse;fontSize=13;fontColor=#000000;labelBackgroundColor=none;labelBorderColor=none;html=1;strokeColor=#000000;fillColor=none;fontStyle=1;whiteSpace=wrap;strokeWidth=2;spacingTop=0;spacing=2;" parent="1" vertex="1">
                    <mxGeometry x="130" y="1230" width="100" height="40" as="geometry"/>
                </mxCell>
                <mxCell id="148" value="" style="edgeStyle=none;exitX=0.5;exitY=0;exitDx=0;exitDy=0;fontSize=13;fontColor=#000000;labelBackgroundColor=none;labelBorderColor=none;html=1;strokeColor=#000000;endArrow=none;endFill=0;fontStyle=1;strokeWidth=2;spacingTop=0;spacing=2;entryX=0.75;entryY=1;entryDx=0;entryDy=0;" parent="1" source="137" edge="1" target="66">
                    <mxGeometry relative="1" as="geometry">
                        <mxPoint x="550" y="980" as="targetPoint"/>
                    </mxGeometry>
                </mxCell>
                <mxCell id="137" value="title" style="ellipse;fontSize=13;fontColor=#000000;labelBackgroundColor=none;labelBorderColor=none;html=1;strokeColor=#000000;fillColor=none;fontStyle=1;whiteSpace=wrap;strokeWidth=2;spacingTop=0;spacing=2;" parent="1" vertex="1">
                    <mxGeometry x="430" y="1247" width="100" height="40" as="geometry"/>
                </mxCell>
                <mxCell id="149" value="" style="edgeStyle=none;exitX=0.5;exitY=0;exitDx=0;exitDy=0;entryX=0.5;entryY=1;entryDx=0;entryDy=0;fontSize=13;fontColor=#000000;labelBackgroundColor=none;labelBorderColor=none;html=1;strokeColor=#000000;fontStyle=1;strokeWidth=2;spacingTop=0;spacing=2;endArrow=none;endFill=0;" parent="1" source="139" target="66" edge="1">
                    <mxGeometry relative="1" as="geometry"/>
                </mxCell>
                <mxCell id="139" value="type" style="ellipse;fontSize=13;fontColor=#000000;labelBackgroundColor=none;labelBorderColor=none;html=1;strokeColor=#000000;fillColor=none;fontStyle=1;whiteSpace=wrap;strokeWidth=2;spacingTop=0;spacing=2;" parent="1" vertex="1">
                    <mxGeometry x="207" y="1270" width="100" height="40" as="geometry"/>
                </mxCell>
                <mxCell id="156" value="" style="edgeStyle=none;exitX=1;exitY=0;exitDx=0;exitDy=0;fontSize=13;fontColor=#000000;labelBackgroundColor=none;labelBorderColor=none;html=1;strokeColor=#000000;endArrow=none;endFill=0;fontStyle=1;strokeWidth=2;spacingTop=0;spacing=2;entryX=0.5;entryY=1;entryDx=0;entryDy=0;" parent="1" source="150" edge="1" target="161">
                    <mxGeometry relative="1" as="geometry">
                        <mxPoint x="430" y="250" as="targetPoint"/>
                    </mxGeometry>
                </mxCell>
                <mxCell id="157" value="" style="edgeStyle=none;exitX=0.75;exitY=0;exitDx=0;exitDy=0;fontSize=13;fontColor=#000000;labelBackgroundColor=none;labelBorderColor=none;html=1;strokeColor=#000000;endArrow=none;endFill=0;fontStyle=1;strokeWidth=2;spacingTop=0;spacing=2;entryX=0.243;entryY=0.917;entryDx=0;entryDy=0;entryPerimeter=0;" parent="1" source="150" edge="1" target="162">
                    <mxGeometry relative="1" as="geometry">
                        <mxPoint x="280" y="240" as="targetPoint"/>
                    </mxGeometry>
                </mxCell>
                <mxCell id="158" value="" style="edgeStyle=none;exitX=0.5;exitY=0;exitDx=0;exitDy=0;fontSize=13;fontColor=#000000;labelBackgroundColor=none;labelBorderColor=none;html=1;strokeColor=#000000;endArrow=none;endFill=0;fontStyle=1;strokeWidth=2;spacingTop=0;spacing=2;entryX=0.5;entryY=1;entryDx=0;entryDy=0;" parent="1" source="150" edge="1" target="165">
                    <mxGeometry relative="1" as="geometry">
                        <mxPoint x="200" y="180" as="targetPoint"/>
                    </mxGeometry>
                </mxCell>
                <mxCell id="159" value="" style="edgeStyle=none;exitX=0.25;exitY=0;exitDx=0;exitDy=0;fontSize=13;fontColor=#000000;labelBackgroundColor=none;labelBorderColor=none;html=1;strokeColor=#000000;fontStyle=1;strokeWidth=2;spacingTop=0;spacing=2;endArrow=none;endFill=0;" parent="1" source="150" edge="1" target="164">
                    <mxGeometry relative="1" as="geometry">
                        <mxPoint x="100" y="180" as="targetPoint"/>
                    </mxGeometry>
                </mxCell>
                <mxCell id="160" value="" style="edgeStyle=none;exitX=0.147;exitY=0.006;exitDx=0;exitDy=0;entryX=0.762;entryY=0.998;entryDx=0;entryDy=0;entryPerimeter=0;fontSize=13;fontColor=#000000;labelBackgroundColor=none;labelBorderColor=none;html=1;strokeColor=#000000;endArrow=none;endFill=0;fontStyle=1;strokeWidth=2;spacingTop=0;spacing=2;exitPerimeter=0;" parent="1" source="150" target="163" edge="1">
                    <mxGeometry relative="1" as="geometry">
                        <mxPoint y="250" as="targetPoint"/>
                    </mxGeometry>
                </mxCell>
                <mxCell id="170" value="" style="edgeStyle=none;exitX=0;exitY=0.25;exitDx=0;exitDy=0;fontSize=13;fontColor=#000000;labelBackgroundColor=none;labelBorderColor=none;html=1;strokeColor=#000000;endArrow=none;endFill=0;fontStyle=1;strokeWidth=2;spacingTop=0;spacing=2;" parent="1" source="150" target="167" edge="1">
                    <mxGeometry relative="1" as="geometry">
                        <mxPoint y="480" as="targetPoint"/>
                    </mxGeometry>
                </mxCell>
                <mxCell id="172" value="" style="edgeStyle=none;exitX=0;exitY=0.5;exitDx=0;exitDy=0;entryX=1;entryY=0.5;entryDx=0;entryDy=0;fontSize=13;fontColor=#000000;labelBackgroundColor=none;labelBorderColor=none;html=1;strokeColor=#000000;endArrow=none;endFill=0;fontStyle=1;strokeWidth=2;spacingTop=0;spacing=2;" parent="1" source="150" target="171" edge="1">
                    <mxGeometry relative="1" as="geometry"/>
                </mxCell>
                <mxCell id="173" value="" style="edgeStyle=none;exitX=0;exitY=0;exitDx=0;exitDy=0;entryX=1;entryY=1;entryDx=0;entryDy=0;fontSize=13;fontColor=#000000;labelBackgroundColor=none;labelBorderColor=none;html=1;strokeColor=#000000;endArrow=none;endFill=0;fontStyle=1;strokeWidth=2;spacingTop=0;spacing=2;" parent="1" source="150" target="168" edge="1">
                    <mxGeometry relative="1" as="geometry"/>
                </mxCell>
                <mxCell id="174" value="" style="edgeStyle=none;entryX=1;entryY=1;entryDx=0;entryDy=0;fontSize=13;fontColor=#000000;labelBackgroundColor=none;labelBorderColor=none;html=1;strokeColor=#000000;endArrow=none;endFill=0;fontStyle=1;strokeWidth=2;spacingTop=0;spacing=2;exitX=0;exitY=0;exitDx=0;exitDy=0;" parent="1" source="150" target="166" edge="1">
                    <mxGeometry relative="1" as="geometry"/>
                </mxCell>
                <mxCell id="175" value="" style="edgeStyle=none;fontSize=13;fontColor=#000000;labelBackgroundColor=none;labelBorderColor=none;html=1;strokeColor=#000000;shape=link;fontStyle=1;strokeWidth=2;spacingTop=0;spacing=2;exitX=0;exitY=0.75;exitDx=0;exitDy=0;entryX=1;entryY=0.5;entryDx=0;entryDy=0;" parent="1" source="150" edge="1" target="176">
                    <mxGeometry relative="1" as="geometry">
                        <mxPoint x="-30" y="640" as="targetPoint"/>
                        <mxPoint x="140" y="602" as="sourcePoint"/>
                    </mxGeometry>
                </mxCell>
                <mxCell id="150" value="Advertisement" style="shape=ext;double=1;rounded=0;fontSize=13;fontColor=#000000;labelBackgroundColor=none;labelBorderColor=none;html=1;strokeColor=#000000;fillColor=none;fontStyle=1;whiteSpace=wrap;strokeWidth=2;spacingTop=0;spacing=2;" parent="1" vertex="1">
                    <mxGeometry x="139" y="628" width="145" height="60" as="geometry"/>
                </mxCell>
                <mxCell id="153" value="" style="edgeStyle=none;exitX=0.5;exitY=1;exitDx=0;exitDy=0;entryX=0.5;entryY=0;entryDx=0;entryDy=0;fontSize=13;fontColor=#000000;labelBackgroundColor=none;labelBorderColor=none;html=1;strokeColor=#000000;endArrow=none;endFill=0;fontStyle=1;strokeWidth=2;spacingTop=0;spacing=2;" parent="1" source="152" target="66" edge="1">
                    <mxGeometry relative="1" as="geometry"/>
                </mxCell>
                <mxCell id="152" value="feature" style="rhombus;fontSize=13;fontColor=#000000;labelBackgroundColor=none;labelBorderColor=none;html=1;strokeColor=#000000;fillColor=none;fontStyle=1;whiteSpace=wrap;strokeWidth=2;spacingTop=0;spacing=2;" parent="1" vertex="1">
                    <mxGeometry x="209" y="765" width="120" height="60" as="geometry"/>
                </mxCell>
                <mxCell id="161" value="advertisementId&lt;br style=&quot;font-size: 13px;&quot;&gt;" style="ellipse;fontSize=13;fontColor=#000000;labelBackgroundColor=none;labelBorderColor=none;html=1;strokeColor=#000000;fillColor=none;fontStyle=1;whiteSpace=wrap;strokeWidth=2;spacingTop=0;spacing=2;" parent="1" vertex="1">
                    <mxGeometry x="303" y="455" width="110" height="50" as="geometry"/>
                </mxCell>
                <mxCell id="162" value="companyId" style="ellipse;fontSize=13;fontColor=#000000;labelBackgroundColor=none;labelBorderColor=none;html=1;strokeColor=#000000;fillColor=#FFFFFF;fontStyle=1;whiteSpace=wrap;strokeWidth=2;spacingTop=0;spacing=2;" parent="1" vertex="1">
                    <mxGeometry x="224" y="397" width="110" height="50" as="geometry"/>
                </mxCell>
                <mxCell id="163" value="description" style="ellipse;fontSize=13;fontColor=#000000;labelBackgroundColor=none;labelBorderColor=none;html=1;strokeColor=#000000;fillColor=#FFFFFF;fontStyle=1;whiteSpace=wrap;strokeWidth=2;spacingTop=0;spacing=2;" parent="1" vertex="1">
                    <mxGeometry x="3" y="438" width="110" height="50" as="geometry"/>
                </mxCell>
                <mxCell id="164" value="title" style="ellipse;fontSize=13;fontColor=#000000;labelBackgroundColor=none;labelBorderColor=none;html=1;strokeColor=#000000;fillColor=#FFFFFF;fontStyle=1;whiteSpace=wrap;strokeWidth=2;spacingTop=0;spacing=2;" parent="1" vertex="1">
                    <mxGeometry x="63.5" y="378" width="110" height="50" as="geometry"/>
                </mxCell>
                <mxCell id="165" value="propertyunited" style="ellipse;fontSize=13;fontColor=#000000;labelBackgroundColor=none;labelBorderColor=none;html=1;strokeColor=#000000;fillColor=#FFFFFF;fontStyle=1;whiteSpace=wrap;strokeWidth=2;spacingTop=0;spacing=2;" parent="1" vertex="1">
                    <mxGeometry x="130" y="441" width="110" height="50" as="geometry"/>
                </mxCell>
                <mxCell id="166" value="price" style="ellipse;fontSize=13;fontColor=#000000;labelBackgroundColor=none;labelBorderColor=none;html=1;strokeColor=#000000;fillColor=#FFFFFF;fontStyle=1;whiteSpace=wrap;strokeWidth=2;spacingTop=0;spacing=2;" parent="1" vertex="1">
                    <mxGeometry x="-107" y="397" width="110" height="50" as="geometry"/>
                </mxCell>
                <mxCell id="167" value="expiryDate" style="ellipse;fontSize=13;fontColor=#000000;labelBackgroundColor=none;labelBorderColor=none;html=1;strokeColor=#000000;fillColor=#FFFFFF;fontStyle=1;whiteSpace=wrap;strokeWidth=2;spacingTop=0;spacing=2;" parent="1" vertex="1">
                    <mxGeometry x="-145" y="496" width="110" height="50" as="geometry"/>
                </mxCell>
                <mxCell id="168" value="postDate" style="ellipse;fontSize=13;fontColor=#000000;labelBackgroundColor=none;labelBorderColor=none;html=1;strokeColor=#000000;fillColor=#FFFFFF;fontStyle=1;whiteSpace=wrap;strokeWidth=2;spacingTop=0;spacing=2;" parent="1" vertex="1">
                    <mxGeometry x="-174" y="428" width="110" height="50" as="geometry"/>
                </mxCell>
                <mxCell id="171" value="status" style="ellipse;fontSize=13;fontColor=#000000;labelBackgroundColor=none;labelBorderColor=none;html=1;strokeColor=#000000;fillColor=#FFFFFF;fontStyle=1;whiteSpace=wrap;strokeWidth=2;spacingTop=0;spacing=2;" parent="1" vertex="1">
                    <mxGeometry x="-130" y="574" width="110" height="50" as="geometry"/>
                </mxCell>
                <mxCell id="177" value="" style="edgeStyle=none;exitX=0;exitY=0.5;exitDx=0;exitDy=0;entryX=1;entryY=0.5;entryDx=0;entryDy=0;fontSize=13;fontColor=#000000;labelBackgroundColor=none;labelBorderColor=none;html=1;strokeColor=#000000;rounded=0;shape=link;fontStyle=1;strokeWidth=2;spacingTop=0;spacing=2;" parent="1" source="176" target="63" edge="1">
                    <mxGeometry relative="1" as="geometry"/>
                </mxCell>
                <mxCell id="176" value="Create" style="rhombus;fontSize=13;fontColor=#000000;labelBackgroundColor=none;labelBorderColor=none;html=1;strokeColor=#000000;fillColor=#FFFFFF;fontStyle=1;whiteSpace=wrap;strokeWidth=2;spacingTop=0;spacing=2;" parent="1" vertex="1">
                    <mxGeometry x="-227" y="643" width="120" height="80" as="geometry"/>
                </mxCell>
                <mxCell id="182" value="registraionDate" style="ellipse;fontSize=13;fontColor=#000000;labelBackgroundColor=none;labelBorderColor=none;html=1;strokeColor=#000000;fillColor=#FFFFFF;fontStyle=1;whiteSpace=wrap;strokeWidth=2;spacingTop=0;spacing=2;" parent="1" vertex="1">
                    <mxGeometry x="-735" y="604" width="110" height="50" as="geometry"/>
                </mxCell>
                <mxCell id="183" value="status" style="ellipse;fontSize=13;fontColor=#000000;labelBackgroundColor=none;labelBorderColor=none;html=1;strokeColor=#000000;fillColor=#FFFFFF;fontStyle=1;whiteSpace=wrap;strokeWidth=2;spacingTop=0;spacing=2;" parent="1" vertex="1">
                    <mxGeometry x="-690" y="561" width="110" height="50" as="geometry"/>
                </mxCell>
                <mxCell id="184" value="email&lt;br style=&quot;font-size: 13px;&quot;&gt;" style="ellipse;fontSize=13;fontColor=#000000;labelBackgroundColor=none;labelBorderColor=none;html=1;strokeColor=#000000;fillColor=#FFFFFF;fontStyle=1;whiteSpace=wrap;strokeWidth=2;spacingTop=0;spacing=2;" parent="1" vertex="1">
                    <mxGeometry x="-708" y="486" width="110" height="50" as="geometry"/>
                </mxCell>
                <mxCell id="185" value="licenseNumber&lt;br style=&quot;font-size: 13px;&quot;&gt;" style="ellipse;fontSize=13;fontColor=#000000;labelBackgroundColor=none;labelBorderColor=none;html=1;strokeColor=#000000;fillColor=#FFFFFF;fontStyle=1;whiteSpace=wrap;strokeWidth=2;spacingTop=0;spacing=2;" parent="1" vertex="1">
                    <mxGeometry x="-675" y="426" width="110" height="50" as="geometry"/>
                </mxCell>
                <mxCell id="186" value="companyName&lt;br style=&quot;font-size: 13px;&quot;&gt;" style="ellipse;fontSize=13;fontColor=#000000;labelBackgroundColor=none;labelBorderColor=none;html=1;strokeColor=#000000;fillColor=#FFFFFF;fontStyle=1;whiteSpace=wrap;strokeWidth=2;spacingTop=0;spacing=2;" parent="1" vertex="1">
                    <mxGeometry x="-550" y="447" width="110" height="50" as="geometry"/>
                </mxCell>
                <mxCell id="187" value="companyId&lt;br style=&quot;font-size: 13px;&quot;&gt;" style="ellipse;fontStyle=5;fontSize=13;fontColor=#000000;labelBackgroundColor=none;labelBorderColor=none;html=1;strokeColor=#000000;fillColor=#FFFFFF;whiteSpace=wrap;strokeWidth=2;spacingTop=0;spacing=2;" parent="1" vertex="1">
                    <mxGeometry x="-445" y="494" width="110" height="50" as="geometry"/>
                </mxCell>
                <mxCell id="196" value="phone" style="ellipse;shape=doubleEllipse;fontSize=13;fontColor=#000000;labelBackgroundColor=none;labelBorderColor=none;html=1;strokeColor=#000000;fillColor=#FFFFFF;fontStyle=1;whiteSpace=wrap;strokeWidth=2;spacingTop=0;spacing=2;" parent="1" vertex="1">
                    <mxGeometry x="-725" y="700" width="100" height="60" as="geometry"/>
                </mxCell>
                <mxCell id="199" value="" style="edgeStyle=none;exitX=0;exitY=1;exitDx=0;exitDy=0;fontSize=13;fontColor=#000000;labelBackgroundColor=none;labelBorderColor=none;html=1;strokeColor=#000000;fontStyle=1;strokeWidth=2;spacingTop=0;spacing=2;" parent="1" source="198" edge="1">
                    <mxGeometry relative="1" as="geometry">
                        <mxPoint x="-690" y="840" as="targetPoint"/>
                    </mxGeometry>
                </mxCell>
                <mxCell id="200" value="" style="edgeStyle=none;exitX=0.5;exitY=1;exitDx=0;exitDy=0;fontSize=13;fontColor=#000000;labelBackgroundColor=none;labelBorderColor=none;html=1;strokeColor=#000000;fontStyle=1;strokeWidth=2;spacingTop=0;spacing=2;" parent="1" source="198" edge="1">
                    <mxGeometry relative="1" as="geometry">
                        <mxPoint x="-630" y="890" as="targetPoint"/>
                    </mxGeometry>
                </mxCell>
                <mxCell id="201" value="" style="edgeStyle=none;exitX=1;exitY=1;exitDx=0;exitDy=0;fontSize=13;fontColor=#000000;labelBackgroundColor=none;labelBorderColor=none;html=1;strokeColor=#000000;endArrow=none;endFill=0;fontStyle=1;strokeWidth=2;spacingTop=0;spacing=2;" parent="1" source="198" edge="1">
                    <mxGeometry relative="1" as="geometry">
                        <mxPoint x="-490.0000000000002" y="880" as="targetPoint"/>
                    </mxGeometry>
                </mxCell>
                <mxCell id="198" value="address" style="ellipse;fontSize=13;fontColor=#000000;labelBackgroundColor=none;labelBorderColor=none;html=1;strokeColor=#000000;fillColor=#FFFFFF;fontStyle=1;whiteSpace=wrap;strokeWidth=2;spacingTop=0;spacing=2;" parent="1" vertex="1">
                    <mxGeometry x="-610" y="720" width="120" height="60" as="geometry"/>
                </mxCell>
                <mxCell id="202" value="Street" style="ellipse;fontSize=13;fontColor=#000000;labelBackgroundColor=none;labelBorderColor=none;html=1;strokeColor=#000000;fillColor=#FFFFFF;fontStyle=1;whiteSpace=wrap;strokeWidth=2;spacingTop=0;spacing=2;" parent="1" vertex="1">
                    <mxGeometry x="-780" y="830" width="120" height="60" as="geometry"/>
                </mxCell>
                <mxCell id="203" value="city" style="ellipse;fontSize=13;fontColor=#000000;labelBackgroundColor=none;labelBorderColor=none;html=1;strokeColor=#000000;fillColor=#FFFFFF;fontStyle=1;whiteSpace=wrap;strokeWidth=2;spacingTop=0;spacing=2;" parent="1" vertex="1">
                    <mxGeometry x="-685" y="880" width="120" height="60" as="geometry"/>
                </mxCell>
                <mxCell id="204" value="State" style="ellipse;fontSize=13;fontColor=#000000;labelBackgroundColor=none;labelBorderColor=none;html=1;strokeColor=#000000;fillColor=none;fontStyle=1;whiteSpace=wrap;strokeWidth=2;spacingTop=0;spacing=2;" parent="1" vertex="1">
                    <mxGeometry x="-540" y="880" width="120" height="60" as="geometry"/>
                </mxCell>
                <mxCell id="208" value="coordinates" style="ellipse;fontSize=13;fontColor=#000000;labelBackgroundColor=none;labelBorderColor=none;html=1;strokeColor=#000000;fillColor=none;fontStyle=1;whiteSpace=wrap;strokeWidth=2;spacingTop=0;spacing=2;" parent="1" vertex="1">
                    <mxGeometry x="-384" y="865" width="120" height="50" as="geometry"/>
                </mxCell>
                <mxCell id="221" value="" style="edgeStyle=none;exitX=1;exitY=0.5;exitDx=0;exitDy=0;fontSize=13;fontColor=#000000;labelBackgroundColor=none;labelBorderColor=none;html=1;strokeColor=#000000;endArrow=none;endFill=0;fontStyle=1;strokeWidth=2;spacingTop=0;spacing=2;entryX=0;entryY=0.5;entryDx=0;entryDy=0;" parent="1" source="209" edge="1" target="65">
                    <mxGeometry relative="1" as="geometry">
                        <mxPoint x="-290.0000000000002" y="1000" as="targetPoint"/>
                    </mxGeometry>
                </mxCell>
                <mxCell id="209" value="postalCode" style="ellipse;fontSize=13;fontColor=#000000;labelBackgroundColor=none;labelBorderColor=none;html=1;strokeColor=#000000;fillColor=none;fontStyle=1;whiteSpace=wrap;strokeWidth=2;spacingTop=0;spacing=2;" parent="1" vertex="1">
                    <mxGeometry x="-530" y="960" width="120" height="50" as="geometry"/>
                </mxCell>
                <mxCell id="216" value="" style="edgeStyle=none;exitX=0;exitY=0;exitDx=0;exitDy=0;entryX=0.75;entryY=1;entryDx=0;entryDy=0;fontSize=13;fontColor=#000000;labelBackgroundColor=none;labelBorderColor=none;html=1;strokeColor=#000000;endArrow=none;endFill=0;fontStyle=1;strokeWidth=2;spacingTop=0;spacing=2;" parent="1" source="210" target="65" edge="1">
                    <mxGeometry relative="1" as="geometry"/>
                </mxCell>
                <mxCell id="210" value="governmentAreaId" style="ellipse;fontSize=13;fontColor=#000000;labelBackgroundColor=none;labelBorderColor=none;html=1;strokeColor=#000000;fillColor=none;fontStyle=1;whiteSpace=wrap;strokeWidth=2;spacingTop=0;spacing=2;" parent="1" vertex="1">
                    <mxGeometry x="-155" y="1080" width="120" height="50" as="geometry"/>
                </mxCell>
                <mxCell id="217" value="" style="edgeStyle=none;exitX=0.5;exitY=0;exitDx=0;exitDy=0;entryX=0.5;entryY=1;entryDx=0;entryDy=0;fontSize=13;fontColor=#000000;labelBackgroundColor=none;labelBorderColor=none;html=1;strokeColor=#000000;endArrow=none;endFill=0;fontStyle=1;strokeWidth=2;spacingTop=0;spacing=2;" parent="1" source="211" target="65" edge="1">
                    <mxGeometry relative="1" as="geometry"/>
                </mxCell>
                <mxCell id="211" value="areaName" style="ellipse;fontSize=13;fontColor=#000000;labelBackgroundColor=none;labelBorderColor=none;html=1;strokeColor=#000000;fillColor=none;fontStyle=1;whiteSpace=wrap;strokeWidth=2;spacingTop=0;spacing=2;" parent="1" vertex="1">
                    <mxGeometry x="-240" y="1140" width="120" height="50" as="geometry"/>
                </mxCell>
                <mxCell id="218" value="" style="edgeStyle=none;exitX=0.5;exitY=0;exitDx=0;exitDy=0;fontSize=13;fontColor=#000000;labelBackgroundColor=none;labelBorderColor=none;html=1;strokeColor=#000000;endArrow=none;endFill=0;fontStyle=1;strokeWidth=2;spacingTop=0;spacing=2;entryX=0.25;entryY=1;entryDx=0;entryDy=0;" parent="1" source="212" edge="1" target="65">
                    <mxGeometry relative="1" as="geometry">
                        <mxPoint x="-240.00000000000023" y="1000" as="targetPoint"/>
                    </mxGeometry>
                </mxCell>
                <mxCell id="212" value="city" style="ellipse;fontSize=13;fontColor=#000000;labelBackgroundColor=none;labelBorderColor=none;html=1;strokeColor=#000000;fillColor=none;fontStyle=1;whiteSpace=wrap;strokeWidth=2;spacingTop=0;spacing=2;" parent="1" vertex="1">
                    <mxGeometry x="-390" y="1130" width="120" height="50" as="geometry"/>
                </mxCell>
                <mxCell id="219" value="" style="edgeStyle=none;exitX=0.5;exitY=0;exitDx=0;exitDy=0;fontSize=13;fontColor=#000000;labelBackgroundColor=none;labelBorderColor=none;html=1;strokeColor=#000000;endArrow=none;endFill=0;fontStyle=1;strokeWidth=2;spacingTop=0;spacing=2;entryX=0.175;entryY=1.033;entryDx=0;entryDy=0;entryPerimeter=0;" parent="1" source="213" edge="1" target="65">
                    <mxGeometry relative="1" as="geometry">
                        <mxPoint x="-240.00000000000023" y="1000" as="targetPoint"/>
                    </mxGeometry>
                </mxCell>
                <mxCell id="213" value="state" style="ellipse;fontSize=13;fontColor=#000000;labelBackgroundColor=none;labelBorderColor=none;html=1;strokeColor=#000000;fillColor=none;fontStyle=1;whiteSpace=wrap;strokeWidth=2;spacingTop=0;spacing=2;" parent="1" vertex="1">
                    <mxGeometry x="-530" y="1110" width="120" height="50" as="geometry"/>
                </mxCell>
                <mxCell id="220" value="" style="edgeStyle=none;exitX=1;exitY=0.5;exitDx=0;exitDy=0;entryX=0;entryY=1;entryDx=0;entryDy=0;fontSize=13;fontColor=#000000;labelBackgroundColor=none;labelBorderColor=none;html=1;strokeColor=#000000;endArrow=none;endFill=0;fontStyle=1;strokeWidth=2;spacingTop=0;spacing=2;" parent="1" source="214" target="65" edge="1">
                    <mxGeometry relative="1" as="geometry"/>
                </mxCell>
                <mxCell id="214" value="country" style="ellipse;fontSize=13;fontColor=#000000;labelBackgroundColor=none;labelBorderColor=none;html=1;strokeColor=#000000;fillColor=none;fontStyle=1;whiteSpace=wrap;strokeWidth=2;spacingTop=0;spacing=2;" parent="1" vertex="1">
                    <mxGeometry x="-610" y="1020" width="120" height="50" as="geometry"/>
                </mxCell>
                <mxCell id="242" value="depositAmount&amp;nbsp;" style="ellipse;fontSize=13;fontColor=#000000;labelBackgroundColor=none;labelBorderColor=none;html=1;strokeColor=#000000;fillColor=#FFFFFF;fontStyle=1;whiteSpace=wrap;strokeWidth=2;spacingTop=0;spacing=2;" parent="1" vertex="1">
                    <mxGeometry x="957" y="1022" width="100" height="40" as="geometry"/>
                </mxCell>
                <mxCell id="244" value="" style="edgeStyle=none;exitX=0;exitY=0.75;exitDx=0;exitDy=0;fontSize=13;fontColor=#000000;labelBackgroundColor=none;labelBorderColor=none;html=1;strokeColor=#000000;endArrow=none;endFill=0;fontStyle=1;strokeWidth=2;spacingTop=0;spacing=2;entryX=1;entryY=0;entryDx=0;entryDy=0;" parent="1" source="66" edge="1" target="336">
                    <mxGeometry relative="1" as="geometry">
                        <mxPoint x="155" y="1050" as="targetPoint"/>
                        <mxPoint x="435" y="920" as="sourcePoint"/>
                    </mxGeometry>
                </mxCell>
                <mxCell id="246" value="" style="edgeStyle=none;fontSize=13;fontColor=#000000;labelBackgroundColor=none;labelBorderColor=none;html=1;strokeColor=#000000;endArrow=none;endFill=0;fontStyle=1;strokeWidth=2;spacingTop=0;spacing=2;entryX=1;entryY=0.5;entryDx=0;entryDy=0;" parent="1" source="66" edge="1" target="338">
                    <mxGeometry relative="1" as="geometry">
                        <mxPoint x="100" y="1170" as="targetPoint"/>
                        <mxPoint x="380" y="1040" as="sourcePoint"/>
                    </mxGeometry>
                </mxCell>
                <mxCell id="248" value="" style="edgeStyle=none;fontSize=13;exitX=0.326;exitY=0.99;exitDx=0;exitDy=0;exitPerimeter=0;fontColor=#000000;labelBackgroundColor=none;labelBorderColor=none;html=1;strokeColor=#000000;endArrow=none;endFill=0;fontStyle=1;strokeWidth=2;spacingTop=0;spacing=2;entryX=1;entryY=0;entryDx=0;entryDy=0;" parent="1" source="66" edge="1" target="339">
                    <mxGeometry relative="1" as="geometry">
                        <mxPoint x="130" y="1245" as="targetPoint"/>
                        <mxPoint x="492.7272727272725" y="1055" as="sourcePoint"/>
                    </mxGeometry>
                </mxCell>
                <mxCell id="250" value="" style="edgeStyle=none;fontSize=13;fontColor=#000000;labelBackgroundColor=none;labelBorderColor=none;html=1;strokeColor=#000000;endArrow=none;endFill=0;fontStyle=1;strokeWidth=2;spacingTop=0;spacing=2;entryX=1;entryY=0;entryDx=0;entryDy=0;" parent="1" source="66" edge="1" target="251">
                    <mxGeometry relative="1" as="geometry">
                        <mxPoint x="155" y="1315.6" as="targetPoint"/>
                        <mxPoint x="524.1199999999999" y="1050" as="sourcePoint"/>
                    </mxGeometry>
                </mxCell>
                <mxCell id="251" value="description" style="ellipse;fontSize=13;fontColor=#000000;labelBackgroundColor=none;labelBorderColor=none;html=1;strokeColor=#000000;fillColor=none;fontStyle=1;whiteSpace=wrap;strokeWidth=2;spacingTop=0;spacing=2;" parent="1" vertex="1">
                    <mxGeometry x="37" y="1274" width="120" height="50" as="geometry"/>
                </mxCell>
                <mxCell id="255" value="" style="edgeStyle=none;exitX=0.5;exitY=0;exitDx=0;exitDy=0;entryX=0.434;entryY=1.038;entryDx=0;entryDy=0;entryPerimeter=0;fontColor=#000000;labelBackgroundColor=none;labelBorderColor=none;html=1;strokeColor=#000000;endArrow=none;endFill=0;fontStyle=1;fontSize=13;strokeWidth=2;spacingTop=0;spacing=2;" parent="1" source="254" target="66" edge="1">
                    <mxGeometry relative="1" as="geometry"/>
                </mxCell>
                <mxCell id="254" value="coordinates" style="ellipse;fontSize=13;fontColor=#000000;labelBackgroundColor=none;labelBorderColor=none;html=1;strokeColor=#000000;fillColor=none;fontStyle=1;whiteSpace=wrap;strokeWidth=2;spacingTop=0;spacing=2;" parent="1" vertex="1">
                    <mxGeometry x="264" y="1190" width="120" height="50" as="geometry"/>
                </mxCell>
                <mxCell id="256" value="" style="edgeStyle=none;fontSize=13;fontColor=#000000;labelBackgroundColor=none;labelBorderColor=none;html=1;strokeColor=#000000;endArrow=none;endFill=0;fontStyle=1;strokeWidth=2;spacingTop=0;spacing=2;" parent="1" source="63" target="257" edge="1">
                    <mxGeometry relative="1" as="geometry">
                        <mxPoint x="-610" y="750" as="sourcePoint"/>
                    </mxGeometry>
                </mxCell>
                <mxCell id="257" value="isVerified" style="ellipse;fontSize=13;fontColor=#000000;labelBackgroundColor=none;labelBorderColor=none;html=1;strokeColor=#000000;fillColor=#FFFFFF;fontStyle=1;whiteSpace=wrap;strokeWidth=2;spacingTop=0;spacing=2;" parent="1" vertex="1">
                    <mxGeometry x="-850" y="679" width="110" height="50" as="geometry"/>
                </mxCell>
                <mxCell id="335" value="Location in" style="rhombus;fontSize=13;fontColor=#000000;labelBackgroundColor=none;labelBorderColor=none;html=1;strokeColor=#000000;fillColor=none;fontStyle=1;whiteSpace=wrap;strokeWidth=2;spacingTop=0;spacing=2;" parent="1" vertex="1">
                    <mxGeometry x="-42" y="895" width="120" height="80" as="geometry"/>
                </mxCell>
                <mxCell id="336" value="Price" style="ellipse;fontSize=13;fontColor=#000000;labelBackgroundColor=none;labelBorderColor=none;html=1;strokeColor=#000000;fillColor=#fafafa;fontStyle=1;whiteSpace=wrap;strokeWidth=2;spacingTop=0;spacing=2;" parent="1" vertex="1">
                    <mxGeometry x="57" y="975" width="120" height="50" as="geometry"/>
                </mxCell>
                <mxCell id="337" value="size" style="ellipse;fontSize=13;fontColor=#000000;labelBackgroundColor=none;labelBorderColor=none;html=1;strokeColor=#000000;fillColor=#fafafa;fontStyle=1;whiteSpace=wrap;strokeWidth=2;spacingTop=0;spacing=2;" parent="1" vertex="1">
                    <mxGeometry x="16" y="1037" width="120" height="50" as="geometry"/>
                </mxCell>
                <mxCell id="338" value="status" style="ellipse;fontSize=13;fontColor=#000000;labelBackgroundColor=none;labelBorderColor=none;html=1;strokeColor=#000000;fillColor=#fafafa;fontStyle=1;whiteSpace=wrap;strokeWidth=2;spacingTop=0;spacing=2;" parent="1" vertex="1">
                    <mxGeometry x="10" y="1087" width="120" height="50" as="geometry"/>
                </mxCell>
                <mxCell id="339" value="bathrooms" style="ellipse;fontSize=13;fontColor=#000000;labelBackgroundColor=none;labelBorderColor=none;html=1;strokeColor=#000000;fillColor=#fafafa;fontStyle=1;whiteSpace=wrap;strokeWidth=2;spacingTop=0;spacing=2;" parent="1" vertex="1">
                    <mxGeometry x="87" y="1120" width="100" height="40" as="geometry"/>
                </mxCell>
                <mxCell id="343" value="isAvailable" style="ellipse;fontSize=13;fontColor=#000000;labelBackgroundColor=none;labelBorderColor=none;html=1;strokeColor=#000000;fillColor=#fafafa;fontStyle=1;whiteSpace=wrap;strokeWidth=2;spacingTop=0;spacing=2;" parent="1" vertex="1">
                    <mxGeometry x="53.5" y="1175" width="120" height="50" as="geometry"/>
                </mxCell>
                <mxCell id="345" value="" style="endArrow=none;fontSize=13;fontColor=#000000;labelBackgroundColor=none;labelBorderColor=none;html=1;strokeColor=#000000;entryX=-0.004;entryY=0.357;entryDx=0;entryDy=0;entryPerimeter=0;shape=link;fontStyle=1;strokeWidth=2;spacingTop=0;spacing=2;" parent="1" source="124" target="99" edge="1">
                    <mxGeometry width="50" height="50" relative="1" as="geometry">
                        <mxPoint x="736" y="927" as="sourcePoint"/>
                        <mxPoint x="850" y="940" as="targetPoint"/>
                    </mxGeometry>
                </mxCell>
                <mxCell id="346" value="" style="endArrow=none;fontSize=13;fontColor=#000000;labelBackgroundColor=none;labelBorderColor=none;html=1;strokeColor=#000000;fontStyle=1;strokeWidth=2;spacingTop=0;spacing=2;exitX=1;exitY=0.5;exitDx=0;exitDy=0;" parent="1" target="124" edge="1" source="66">
                    <mxGeometry width="50" height="50" relative="1" as="geometry">
                        <mxPoint x="580" y="950" as="sourcePoint"/>
                        <mxPoint x="710" y="940" as="targetPoint"/>
                    </mxGeometry>
                </mxCell>
                <mxCell id="124" value="reservs" style="rhombus;fontSize=13;fontColor=#000000;labelBackgroundColor=none;labelBorderColor=none;html=1;strokeColor=#000000;fillColor=#FFFFFF;fontStyle=1;whiteSpace=wrap;strokeWidth=2;spacingTop=0;spacing=2;" parent="1" vertex="1">
                    <mxGeometry x="475" y="875" width="95" height="80" as="geometry"/>
                </mxCell>
                <mxCell id="348" value="" style="endArrow=none;fontSize=13;fontColor=#000000;labelBackgroundColor=none;labelBorderColor=none;html=1;strokeColor=#000000;exitX=0.895;exitY=0.423;exitDx=0;exitDy=0;exitPerimeter=0;shape=link;fontStyle=1;strokeWidth=2;spacingTop=0;spacing=2;entryX=0;entryY=0.5;entryDx=0;entryDy=0;" parent="1" source="335" edge="1" target="66">
                    <mxGeometry width="50" height="50" relative="1" as="geometry">
                        <mxPoint x="177.04000000000042" y="959.04" as="sourcePoint"/>
                        <mxPoint x="457" y="946" as="targetPoint"/>
                    </mxGeometry>
                </mxCell>
                <mxCell id="350" value="N" style="text;html=1;align=center;verticalAlign=middle;resizable=0;points=[];autosize=1;strokeColor=none;fillColor=none;fontColor=#000000;fontStyle=1;fontSize=13;strokeWidth=2;spacingTop=0;spacing=2;" parent="1" vertex="1">
                    <mxGeometry x="586.5" y="883" width="27" height="26" as="geometry"/>
                </mxCell>
                <mxCell id="351" value="M" style="text;html=1;align=center;verticalAlign=middle;resizable=0;points=[];autosize=1;strokeColor=none;fillColor=none;fontColor=#000000;fontStyle=1;fontSize=13;strokeWidth=2;spacingTop=0;spacing=2;" parent="1" vertex="1">
                    <mxGeometry x="396" y="922" width="29" height="26" as="geometry"/>
                </mxCell>
                <mxCell id="353" value="" style="endArrow=none;fontSize=13;fontColor=#000000;labelBackgroundColor=none;labelBorderColor=none;html=1;strokeColor=#000000;entryX=0.75;entryY=1;entryDx=0;entryDy=0;shape=link;fontStyle=1;strokeWidth=2;spacingTop=0;spacing=2;" parent="1" source="152" target="150" edge="1">
                    <mxGeometry width="50" height="50" relative="1" as="geometry">
                        <mxPoint x="895.2400000000002" y="901.4399999999998" as="sourcePoint"/>
                        <mxPoint x="905.48" y="809.9999999999998" as="targetPoint"/>
                    </mxGeometry>
                </mxCell>
                <mxCell id="355" value="" style="endArrow=none;fontSize=13;fontColor=#000000;labelBackgroundColor=none;labelBorderColor=none;html=1;strokeColor=#000000;fontStyle=1;strokeWidth=2;spacingTop=0;spacing=2;" parent="1" source="65" target="335" edge="1">
                    <mxGeometry width="50" height="50" relative="1" as="geometry">
                        <mxPoint x="177.04000000000042" y="959.04" as="sourcePoint"/>
                        <mxPoint x="466.99999999999955" y="966" as="targetPoint"/>
                    </mxGeometry>
                </mxCell>
                <mxCell id="365" value="" style="edgeStyle=none;exitX=0;exitY=0;exitDx=0;exitDy=0;entryX=0.5;entryY=1;entryDx=0;entryDy=0;fontSize=13;fontColor=#000000;labelBackgroundColor=none;labelBorderColor=none;html=1;strokeColor=#000000;endArrow=none;endFill=0;fontStyle=1;strokeWidth=2;spacingTop=0;spacing=2;" parent="1" source="65" target="208" edge="1">
                    <mxGeometry relative="1" as="geometry">
                        <mxPoint x="-309" y="952.5" as="sourcePoint"/>
                        <mxPoint x="-333" y="917.5" as="targetPoint"/>
                    </mxGeometry>
                </mxCell>
                <mxCell id="368" value="" style="edgeStyle=none;exitX=1;exitY=1;exitDx=0;exitDy=0;fontColor=#000000;labelBackgroundColor=none;labelBorderColor=none;html=1;strokeColor=#000000;endArrow=none;endFill=0;fontStyle=1;fontSize=13;entryX=0.25;entryY=0.085;entryDx=0;entryDy=0;entryPerimeter=0;strokeWidth=2;spacingTop=0;spacing=2;" parent="1" target="242" edge="1" source="99">
                    <mxGeometry relative="1" as="geometry">
                        <mxPoint x="955" y="970" as="sourcePoint"/>
                        <mxPoint x="1062.1168674720284" y="1130.6753012080421" as="targetPoint"/>
                    </mxGeometry>
                </mxCell>
                <mxCell id="369" value="" style="edgeStyle=none;exitX=0.675;exitY=0.988;exitDx=0;exitDy=0;fontSize=13;fontColor=#000000;labelBackgroundColor=none;labelBorderColor=none;html=1;strokeColor=#000000;endArrow=none;endFill=0;fontStyle=1;entryX=0.24;entryY=0.025;entryDx=0;entryDy=0;entryPerimeter=0;exitPerimeter=0;strokeWidth=2;spacingTop=0;spacing=2;" parent="1" source="99" target="112" edge="1">
                    <mxGeometry relative="1" as="geometry">
                        <mxPoint x="1014" y="1164" as="targetPoint"/>
                        <mxPoint x="974" y="994" as="sourcePoint"/>
                    </mxGeometry>
                </mxCell>
                <mxCell id="370" value="" style="edgeStyle=none;exitX=0.5;exitY=1;exitDx=0;exitDy=0;fontSize=13;fontColor=#000000;labelBackgroundColor=none;labelBorderColor=none;html=1;strokeColor=#000000;endArrow=none;endFill=0;fontStyle=1;strokeWidth=2;spacingTop=0;spacing=2;" parent="1" edge="1" source="99">
                    <mxGeometry relative="1" as="geometry">
                        <mxPoint x="899.7142857142858" y="1160" as="targetPoint"/>
                        <mxPoint x="895" y="970" as="sourcePoint"/>
                    </mxGeometry>
                </mxCell>
                <mxCell id="371" value="1&lt;span style=&quot;color: rgba(0, 0, 0, 0); font-family: monospace; font-size: 0px; text-align: start;&quot;&gt;%3CmxGraphModel%3E%3Croot%3E%3CmxCell%20id%3D%220%22%2F%3E%3CmxCell%20id%3D%221%22%20parent%3D%220%22%2F%3E%3CmxCell%20id%3D%222%22%20value%3D%22M%22%20style%3D%22text%3Bhtml%3D1%3Balign%3Dcenter%3BverticalAlign%3Dmiddle%3Bresizable%3D0%3Bpoints%3D%5B%5D%3Bautosize%3D1%3BstrokeColor%3Dnone%3BfillColor%3Dnone%3BfontColor%3D%23000000%3BfontStyle%3D1%3BfontSize%3D13%3B%22%20vertex%3D%221%22%20parent%3D%221%22%3E%3CmxGeometry%20x%3D%22586%22%20y%3D%22903%22%20width%3D%2229%22%20height%3D%2228%22%20as%3D%22geometry%22%2F%3E%3C%2FmxCell%3E%3C%2Froot%3E%3C%2FmxGraphModel%3E&lt;/span&gt;" style="text;html=1;align=center;verticalAlign=middle;resizable=0;points=[];autosize=1;strokeColor=none;fillColor=none;fontColor=#000000;fontStyle=1;fontSize=13;strokeWidth=2;spacingTop=0;spacing=2;" parent="1" vertex="1">
                    <mxGeometry x="199" y="877" width="25" height="26" as="geometry"/>
                </mxCell>
                <mxCell id="372" value="1&lt;span style=&quot;color: rgba(0, 0, 0, 0); font-family: monospace; font-size: 0px; text-align: start;&quot;&gt;%3CmxGraphModel%3E%3Croot%3E%3CmxCell%20id%3D%220%22%2F%3E%3CmxCell%20id%3D%221%22%20parent%3D%220%22%2F%3E%3CmxCell%20id%3D%222%22%20value%3D%22M%22%20style%3D%22text%3Bhtml%3D1%3Balign%3Dcenter%3BverticalAlign%3Dmiddle%3Bresizable%3D0%3Bpoints%3D%5B%5D%3Bautosize%3D1%3BstrokeColor%3Dnone%3BfillColor%3Dnone%3BfontColor%3D%23000000%3BfontStyle%3D1%3BfontSize%3D13%3B%22%20vertex%3D%221%22%20parent%3D%221%22%3E%3CmxGeometry%20x%3D%22586%22%20y%3D%22903%22%20width%3D%2229%22%20height%3D%2228%22%20as%3D%22geometry%22%2F%3E%3C%2FmxCell%3E%3C%2Froot%3E%3C%2FmxGraphModel%3E&lt;/span&gt;" style="text;html=1;align=center;verticalAlign=middle;resizable=0;points=[];autosize=1;strokeColor=none;fillColor=none;fontColor=#000000;fontStyle=1;fontSize=13;strokeWidth=2;spacingTop=0;spacing=2;" parent="1" vertex="1">
                    <mxGeometry x="327" y="857" width="25" height="26" as="geometry"/>
                </mxCell>
                <mxCell id="373" value="1&lt;span style=&quot;color: rgba(0, 0, 0, 0); font-family: monospace; font-size: 0px; text-align: start;&quot;&gt;%3CmxGraphModel%3E%3Croot%3E%3CmxCell%20id%3D%220%22%2F%3E%3CmxCell%20id%3D%221%22%20parent%3D%220%22%2F%3E%3CmxCell%20id%3D%222%22%20value%3D%22M%22%20style%3D%22text%3Bhtml%3D1%3Balign%3Dcenter%3BverticalAlign%3Dmiddle%3Bresizable%3D0%3Bpoints%3D%5B%5D%3Bautosize%3D1%3BstrokeColor%3Dnone%3BfillColor%3Dnone%3BfontColor%3D%23000000%3BfontStyle%3D1%3BfontSize%3D13%3B%22%20vertex%3D%221%22%20parent%3D%221%22%3E%3CmxGeometry%20x%3D%22586%22%20y%3D%22903%22%20width%3D%2229%22%20height%3D%2228%22%20as%3D%22geometry%22%2F%3E%3C%2FmxCell%3E%3C%2Froot%3E%3C%2FmxGraphModel%3E&lt;/span&gt;" style="text;html=1;align=center;verticalAlign=middle;resizable=0;points=[];autosize=1;strokeColor=none;fillColor=none;fontColor=#000000;fontStyle=1;fontSize=13;strokeWidth=2;spacingTop=0;spacing=2;" parent="1" vertex="1">
                    <mxGeometry x="-170" y="938" width="25" height="26" as="geometry"/>
                </mxCell>
                <mxCell id="375" value="1&lt;span style=&quot;color: rgba(0, 0, 0, 0); font-family: monospace; font-size: 0px; text-align: start;&quot;&gt;%3CmxGraphModel%3E%3Croot%3E%3CmxCell%20id%3D%220%22%2F%3E%3CmxCell%20id%3D%221%22%20parent%3D%220%22%2F%3E%3CmxCell%20id%3D%222%22%20value%3D%22M%22%20style%3D%22text%3Bhtml%3D1%3Balign%3Dcenter%3BverticalAlign%3Dmiddle%3Bresizable%3D0%3Bpoints%3D%5B%5D%3Bautosize%3D1%3BstrokeColor%3Dnone%3BfillColor%3Dnone%3BfontColor%3D%23000000%3BfontStyle%3D1%3BfontSize%3D13%3B%22%20vertex%3D%221%22%20parent%3D%221%22%3E%3CmxGeometry%20x%3D%22586%22%20y%3D%22903%22%20width%3D%2229%22%20height%3D%2228%22%20as%3D%22geometry%22%2F%3E%3C%2FmxCell%3E%3C%2Froot%3E%3C%2FmxGraphModel%3E&lt;/span&gt;" style="text;html=1;align=center;verticalAlign=middle;resizable=0;points=[];autosize=1;strokeColor=none;fillColor=none;fontColor=#000000;fontStyle=1;fontSize=13;strokeWidth=2;spacingTop=0;spacing=2;" parent="1" vertex="1">
                    <mxGeometry x="-357" y="636" width="25" height="26" as="geometry"/>
                </mxCell>
                <mxCell id="376" value="1&lt;span style=&quot;color: rgba(0, 0, 0, 0); font-family: monospace; font-size: 0px; text-align: start;&quot;&gt;%3CmxGraphModel%3E%3Croot%3E%3CmxCell%20id%3D%220%22%2F%3E%3CmxCell%20id%3D%221%22%20parent%3D%220%22%2F%3E%3CmxCell%20id%3D%222%22%20value%3D%22M%22%20style%3D%22text%3Bhtml%3D1%3Balign%3Dcenter%3BverticalAlign%3Dmiddle%3Bresizable%3D0%3Bpoints%3D%5B%5D%3Bautosize%3D1%3BstrokeColor%3Dnone%3BfillColor%3Dnone%3BfontColor%3D%23000000%3BfontStyle%3D1%3BfontSize%3D13%3B%22%20vertex%3D%221%22%20parent%3D%221%22%3E%3CmxGeometry%20x%3D%22586%22%20y%3D%22903%22%20width%3D%2229%22%20height%3D%2228%22%20as%3D%22geometry%22%2F%3E%3C%2FmxCell%3E%3C%2Froot%3E%3C%2FmxGraphModel%3E&lt;/span&gt;" style="text;html=1;align=center;verticalAlign=middle;resizable=0;points=[];autosize=1;strokeColor=none;fillColor=none;fontColor=#000000;fontStyle=1;fontSize=13;strokeWidth=2;spacingTop=0;spacing=2;" parent="1" vertex="1">
                    <mxGeometry x="265" y="700" width="25" height="26" as="geometry"/>
                </mxCell>
                <mxCell id="377" value="N" style="text;html=1;align=center;verticalAlign=middle;resizable=0;points=[];autosize=1;strokeColor=none;fillColor=none;fontColor=#000000;fontStyle=1;fontSize=13;strokeWidth=2;spacingTop=0;spacing=2;" parent="1" vertex="1">
                    <mxGeometry x="109" y="685" width="27" height="26" as="geometry"/>
                </mxCell>
                <mxCell id="378" value="N" style="text;html=1;align=center;verticalAlign=middle;resizable=0;points=[];autosize=1;strokeColor=none;fillColor=none;fontColor=#000000;fontStyle=1;fontSize=13;strokeWidth=2;spacingTop=0;spacing=2;" parent="1" vertex="1">
                    <mxGeometry x="680" y="862" width="27" height="26" as="geometry"/>
                </mxCell>
                <mxCell id="379" value="1&lt;span style=&quot;color: rgba(0, 0, 0, 0); font-family: monospace; font-size: 0px; text-align: start;&quot;&gt;%3CmxGraphModel%3E%3Croot%3E%3CmxCell%20id%3D%220%22%2F%3E%3CmxCell%20id%3D%221%22%20parent%3D%220%22%2F%3E%3CmxCell%20id%3D%222%22%20value%3D%22M%22%20style%3D%22text%3Bhtml%3D1%3Balign%3Dcenter%3BverticalAlign%3Dmiddle%3Bresizable%3D0%3Bpoints%3D%5B%5D%3Bautosize%3D1%3BstrokeColor%3Dnone%3BfillColor%3Dnone%3BfontColor%3D%23000000%3BfontStyle%3D1%3BfontSize%3D13%3B%22%20vertex%3D%221%22%20parent%3D%221%22%3E%3CmxGeometry%20x%3D%22586%22%20y%3D%22903%22%20width%3D%2229%22%20height%3D%2228%22%20as%3D%22geometry%22%2F%3E%3C%2FmxCell%3E%3C%2Froot%3E%3C%2FmxGraphModel%3E&lt;/span&gt;" style="text;html=1;align=center;verticalAlign=middle;resizable=0;points=[];autosize=1;strokeColor=none;fillColor=none;fontColor=#000000;fontStyle=1;fontSize=13;strokeWidth=2;spacingTop=0;spacing=2;" parent="1" vertex="1">
                    <mxGeometry x="629.5" y="700" width="25" height="26" as="geometry"/>
                </mxCell>
                <mxCell id="388" value="" style="edgeStyle=none;exitX=1;exitY=0.5;exitDx=0;exitDy=0;fontSize=13;fontColor=#000000;labelBackgroundColor=none;labelBorderColor=none;html=1;strokeColor=#000000;endArrow=none;endFill=0;fontStyle=1;strokeWidth=2;spacingTop=0;spacing=2;dashed=1;" edge="1" parent="1">
                    <mxGeometry relative="1" as="geometry">
                        <mxPoint x="1024.5" y="945" as="targetPoint"/>
                        <mxPoint x="973.5" y="945" as="sourcePoint"/>
                    </mxGeometry>
                </mxCell>
                <mxCell id="390" value="" style="edgeStyle=none;fontSize=13;fontColor=#000000;labelBackgroundColor=none;labelBorderColor=none;html=1;strokeColor=#000000;endArrow=none;endFill=0;fontStyle=1;strokeWidth=2;spacingTop=0;spacing=2;dashed=1;entryX=0.791;entryY=0.68;entryDx=0;entryDy=0;entryPerimeter=0;exitX=0.136;exitY=0.62;exitDx=0;exitDy=0;exitPerimeter=0;" edge="1" parent="1" source="161" target="161">
                    <mxGeometry relative="1" as="geometry">
                        <mxPoint x="448" y="390" as="targetPoint"/>
                        <mxPoint x="335" y="366" as="sourcePoint"/>
                    </mxGeometry>
                </mxCell>
                <mxCell id="392" value="" style="edgeStyle=none;fontSize=13;exitX=0.326;exitY=0.99;exitDx=0;exitDy=0;exitPerimeter=0;fontColor=#000000;labelBackgroundColor=none;labelBorderColor=none;html=1;strokeColor=#000000;endArrow=none;endFill=0;fontStyle=1;strokeWidth=2;spacingTop=0;spacing=2;entryX=1;entryY=0;entryDx=0;entryDy=0;" edge="1" parent="1" target="343">
                    <mxGeometry relative="1" as="geometry">
                        <mxPoint x="182.1455206038563" y="1135.7744321365344" as="targetPoint"/>
                        <mxPoint x="301.1199999999999" y="954.4000000000001" as="sourcePoint"/>
                    </mxGeometry>
                </mxCell>
            </root>
        </mxGraphModel>
    </diagram>
</mxfile>